<svg xmlns="http://www.w3.org/2000/svg" xmlns:xlink="http://www.w3.org/1999/xlink" xmlns:inkscape="http://www.inkscape.org/namespaces/inkscape" version="1.1" viewBox="34 -260 530 940" preserveAspectRatio="xMidYMid meet">
<defs>
<clipPath id="clip_logo_1">
<path transform="matrix(1,0,0,-1,0,841.89)" d="M0 841.89H595.276V0H0Z"/>
</clipPath>
</defs>
<g inkscape:groupmode="layer" inkscape:label="Calque 1">
<path transform="matrix(1,0,0,-1,451.1655,152.9447)" d="M0 0H105.944L-21.621-398.912-70.269-248.644Z" fill="#ffffff"/>
<path transform="matrix(1,0,0,-1,185.2243,387.53514)" d="M0 0 29.189 113.511 59.458 0ZM103.782 234.591H-25.946L-147.025-164.321H-46.486L-23.783-90.809H85.404L104.863-164.321H233.509Z" fill="#ffffff"/>
<g clip-path="url(#clip_logo_1)">
<path transform="matrix(1,0,0,-1,71.6895,631.3361)" d="M0 0-8.393-12.803H4.045ZM28.213-28.71C28.905-30.825 27.146-33.316 24.993-33.316H12.208C11.083-33.316 10.139-32.604 9.803-31.501L8.493-27.251H-17.864L-18.796-28.686-20.915-31.68C-21.641-32.693-22.818-33.323-23.987-33.323H-37.486C-39.958-33.323-41.131-30.685-39.601-28.568L-7.155 20.596C-5.062 23.418-2.361 23.639 .466 23.75V23.742C1.504 23.762 7.128 23.699 7.91 23.707 9.027 23.707 11.271 23.043 12.171 20.476Z" fill="#ffffff"/>
<path transform="matrix(1,0,0,-1,152.6802,623.20236)" d="M0 0C-.333 .398-.841 .617-1.432 .617H-22.113C-22.197 .617-22.303 .526-22.318 .443L-24.611-12.235C-24.614-12.25-24.612-12.257-24.612-12.257L-3.948-12.224C-2.65-12.224-1.402-11.181-1.164-9.899L.353-1.517C.458-.936 .333-.396 0 0M18.771 .462 16.473-12.286C15.473-17.791 11.484-22.85 6.061-25.484 5.963-25.532 5.924-25.613 5.924-25.639L12.427-37.059C12.931-37.955 12.928-39.011 12.419-39.881 11.909-40.75 10.991-41.271 9.964-41.271 4.323-41.271 2.412-41.424-2.415-41.424-5.424-41.424-6.737-41.144-7.505-39.616L-13.455-27.882C-13.625-27.548-13.965-27.355-14.39-27.355L-27.18-27.37C-27.263-27.37-27.372-27.462-27.387-27.543L-29.255-37.891C-29.62-39.887-31.493-41.449-33.521-41.449H-44.087C-46.18-41.449-47.602-39.751-47.229-37.695L-38.216 12.175C-37.86 14.138-35.947 15.734-33.951 15.734H6.008C14.578 15.734 20.297 8.881 18.771 .462" fill="#ffffff"/>
<path transform="matrix(1,0,0,-1,235.126,611.2717)" d="M0 0V-.001L-1.458-8.053C-1.821-10.049-3.694-11.612-5.723-11.612H-21.187C-21.27-11.612-21.378-11.702-21.394-11.785L-28.269-49.821C-28.633-51.817-30.507-53.38-32.535-53.38H-43.108C-44.121-53.38-45.008-52.986-45.605-52.27-46.201-51.557-46.428-50.617-46.249-49.626L-39.374-11.594-54.82-11.612C-55.834-11.612-56.721-11.217-57.319-10.5-57.914-9.787-58.142-8.85-57.962-7.858L-56.512 .192C-56.148 2.188-54.273 3.752-52.247 3.752H-3.141C-1.057 3.752 .367 2.063 0 0" fill="#ffffff"/>
<path transform="matrix(1,0,0,-1,299.6377,608.5763)" d="M0 0C.404-.671 .399-1.533-.01-2.31L-.014-2.314-4.138-9.945C-13.104-26.527-13.104-26.527-22.7-44.495L-27.618-53.704C-28.385-55.136-29.937-56.097-31.479-56.097H-50.55C-52.148-56.097-53.447-55.042-53.709-53.531L-55.499-43.167C-58.505-25.754-58.505-25.754-61.235-10.541L-62.741-2.145C-63.02-.576-61.6 .991-59.965 .991H-47.114C-45.492 .991-44.226-.029-43.963-1.545L-37.848-36.363C-37.817-36.533-37.661-36.571-37.614-36.578-37.54-36.591-37.435-36.583-37.376-36.475L-18.535-1.381C-17.776 .037-16.23 .99-14.691 .99H-1.84C-1.051 .99-.382 .629 0 0" fill="#ffffff"/>
<path transform="matrix(1,0,0,-1,323.3164,611.2726)" d="M0 0-9.005-49.82C-9.367-51.816-11.241-53.379-13.27-53.379H-23.844C-24.856-53.379-25.743-52.985-26.341-52.269-26.936-51.556-27.165-50.617-26.984-49.626L-17.98 .193C-17.619 2.188-15.745 3.753-13.716 3.753H-3.134C-1.044 3.753 .373 2.057 0 0" fill="#ffffff"/>
<path transform="matrix(1,0,0,-1,387.9775,611.3009)" d="M0 0-1.459-8.052C-1.821-10.046-3.694-11.609-5.725-11.609H-39.938C-40.725-11.609-41.505-12.258-41.643-13.028L-42.283-16.557C-42.343-16.894-42.273-17.203-42.083-17.43-41.895-17.656-41.601-17.78-41.257-17.78H-15.963C-11.822-17.78-8.212-19.373-5.796-22.265-3.384-25.152-2.459-28.98-3.192-33.045L-4.138-38.284C-5.639-46.594-13.738-53.354-22.191-53.354L-60.537-53.347C-62.628-53.347-64.052-51.649-63.679-49.594L-62.153-41.143C-61.791-39.146-59.918-37.583-57.888-37.583H-22.722C-21.938-37.583-21.157-36.933-21.018-36.162L-20.542-33.514C-20.482-33.176-20.552-32.865-20.74-32.639-20.931-32.411-21.225-32.287-21.567-32.287H-46.86C-51.003-32.287-54.613-30.695-57.029-27.806-59.44-24.919-60.364-21.089-59.631-17.022L-58.598-11.309C-57.097-2.999-48.997 3.763-40.543 3.763H-3.143C-1.053 3.763 .372 2.067 0 0" fill="#ffffff"/>
<path transform="matrix(1,0,0,-1,416.5762,611.2726)" d="M0 0-9.005-49.82C-9.367-51.816-11.241-53.379-13.27-53.379H-23.844C-24.856-53.379-25.742-52.985-26.341-52.269-26.936-51.556-27.165-50.617-26.984-49.626L-17.98 .193C-17.619 2.188-15.745 3.753-13.716 3.753H-3.134C-1.044 3.753 .373 2.057 0 0" fill="#ffffff"/>
<path transform="matrix(1,0,0,-1,437.1875,648.5353)" d="M0 0C.189-.227 .483-.352 .827-.352H25.177C25.961-.352 26.741 .299 26.881 1.068L31.092 24.404C31.151 24.741 31.082 25.053 30.892 25.278 30.702 25.505 30.408 25.631 30.064 25.631H5.725C4.939 25.631 4.159 24.981 4.021 24.212L-.198 .874C-.259 .537-.187 .227 0 0M49.458 25.93 44.585-1.046C43.083-9.355 34.983-16.117 26.53-16.117H-5.802C-14.439-16.117-20.08-9.191-18.573-.852L-13.699 26.123C-12.198 34.434-4.099 41.194 4.355 41.194H36.688C45.328 41.194 50.963 34.266 49.458 25.93" fill="#ffffff"/>
<path transform="matrix(1,0,0,-1,556.7871,611.3009)" d="M0 0-8.997-49.792C-9.36-51.789-11.233-53.352-13.263-53.352H-24.855C-25.972-53.352-26.947-52.861-27.531-52.005L-44.81-21.636C-44.888-21.524-45.032-21.544-45.075-21.552-45.167-21.571-45.22-21.625-45.235-21.712V-21.716L-50.311-49.785C-50.674-51.78-52.548-53.343-54.575-53.343H-65.073C-67.162-53.343-68.591-51.648-68.216-49.591L-59.219 .199C-58.855 2.196-56.982 3.759-54.954 3.759H-41.568C-40.443 3.759-39.469 3.267-38.891 2.409L-23.017-25.801C-22.941-25.909-22.8-25.892-22.759-25.883-22.694-25.871-22.613-25.83-22.591-25.717L-17.912 .199C-17.549 2.196-15.676 3.759-13.646 3.759H-3.147C-1.055 3.759 .365 2.061 0 0" fill="#ffffff"/>
</g>
</g>
</svg>
